<svg id="Capa_1" data-name="Capa 1" xmlns="http://www.w3.org/2000/svg" version="1.1" viewBox="0 0 1080 1080">
  <defs>
    <style>
      .cls-1 {
        fill: #d41f18;
      }

      .cls-1, .cls-2 {
        stroke-width: 0px;
      }

      .cls-2 {
        fill: #242d59;
      }
    </style>
  </defs>
  <path class="cls-1" d="M612.45,334.1c2,1.77,4.43.93,6.65.94,16.22.08,32.44.04,48.66.04,7.64,0,7.81.05,5.78,7.12-9.41,32.74-18.19,65.65-26.32,98.73-1.3,5.29-2.48,10.63-4.11,15.83-1.34,4.25.25,4.95,4.14,4.93,21.27-.14,42.55-.08,63.82-.06,21.85.02,32.69,12.69,29.85,34.47-1.48,11.33-5.24,22.01-8.69,32.78-4.54,14.17-9.24,28.29-13.72,42.47-.97,3.07-1.99,4.72-5.85,4.85-54.24,1.77-108.48,3.75-162.72,5.74-51.49,1.88-102.99,3.77-154.48,5.85-5.06.2-6.34-.58-4.28-5.61,12.11-29.62,20.7-60.45,30.81-90.75,4.04-12.09,11.4-21.78,21-29.84,7.77-6.52,16.54-10.2,27.1-10.03,22.32.37,44.65-.06,66.98.25,4.97.07,6.65-1.64,8.09-6.17,7.53-23.67,14.76-47.43,21.36-71.38,1.62-5.88,4.16-11.39,7.11-16.74,6.5-11.77,16.63-18.59,29.4-21.93,1.14-.3,2.63.17,3.1-1.49h6.32Z"/>
  <path class="cls-2" d="M709.9,595.8c.5,3.41-1.01,6.28-2.14,9.14-14.84,37.59-25.15,76.68-38.2,114.86-3.74,10.94-3.46,11.2-14.91,11.71-34.05,1.5-68.11,2.79-102.16,4.27-52.33,2.27-104.66,4.65-157,6.96-18.08.8-36.16,1.47-54.23,2.38-4.01.2-4.47-.9-3.26-4.51,5.33-15.9,9.5-32.27,15.8-47.77,10.4-25.6,17.62-52.21,26.42-78.3,1.72-5.11,4.19-6.42,9.25-6.6,68.76-2.44,137.51-5.04,206.25-7.71,36.78-1.43,73.56-3.06,110.33-4.59,1.25-.05,2.51.1,3.84.16Z"/>
</svg>